# xmcd
#
# Track frame offsets:
#	150
#	28889
#	59483
#	74991
#
# Disc length: 1115 seconds
#
# Revision: 0
# Processed by: cddbd v1.4PL0 Copyright (c) Steve Scherf et al.
# Submitted via: dBpowerAMP V4.0
#
DISCID=40045904
DTITLE=The Frustrated Bachelors - Songs From the Winters of Our Youth
DYEAR=1900
DGENRE=
TTITLE0=In August
TTITLE1=Dusty Back Roads and Broken Down Horses
TTITLE2=Wonderful Anymore
TTITLE3=Washington Street
EXTD=New band
EXTT0=
EXTT1=
EXTT2=
EXTT3=
PLAYORDER=
